<?xml version="1.0" encoding="iso-8859-1"?>
<!-- Generator: Adobe Illustrator 19.0.0, SVG Export Plug-In . SVG Version: 6.00 Build 0)  -->
<svg version="1.1" id="Layer_1" xmlns="http://www.w3.org/2000/svg" xmlns:xlink="http://www.w3.org/1999/xlink" x="0px" y="0px"
	 viewBox="0 0 512 512" style="enable-background:new 0 0 512 512;" xml:space="preserve">
<circle style="fill:#FFC61B;" cx="256" cy="256" r="256"/>
<path style="fill:#EAA22F;" d="M264.283,511.853C390.07,507.854,492.94,413.12,509.618,290.94L339.022,120.344l-19.196,31.975
	l-14.838-14.838l-67.25,139.75l-94.463-96.878l-6.773,29.274l-8.511-8.511l-27.76,45.575l95.11,95.11l25.793-20.335l-46.097,101.142
	L264.283,511.853z"/>
<path style="fill:#386895;" d="M185.032,426.667h141.934c7.933,0,14.365-6.432,14.365-14.365V128.145
	c0-7.933-6.432-14.367-14.365-14.367H185.032c-7.933,0-14.365,6.432-14.365,14.367v284.157
	C170.667,420.235,177.099,426.667,185.032,426.667z"/>
<path style="fill:#273B7A;" d="M326.966,113.778h-71.542v312.889h71.542c7.935,0,14.365-6.432,14.365-14.365V128.143
	C341.333,120.21,334.901,113.778,326.966,113.778z"/>
<path style="fill:#FF5419;" d="M138.931,248.242h-34.792c-3.246,0-5.877-2.631-5.877-5.877v-58.065c0-3.246,2.631-5.877,5.877-5.877
	h34.792c3.246,0,5.877,2.631,5.877,5.877v58.065C144.808,245.612,142.177,248.242,138.931,248.242z"/>
<path style="fill:#02B2B2;" d="M184.889,300.103v-47.12c0-2.698,2.188-4.884,4.884-4.884h18.675c2.698,0,4.884,2.188,4.884,4.884
	v47.12c0,2.698-2.188,4.884-4.884,4.884h-18.675C187.075,304.987,184.889,302.801,184.889,300.103z"/>
<path style="fill:#FFC61B;" d="M228.714,273.239h-31.622c-2.693,0-4.875-2.182-4.875-4.875v-0.591c0-2.693,2.182-4.875,4.875-4.875
	h31.622c2.693,0,4.875,2.182,4.875,4.875v0.591C233.589,271.057,231.407,273.239,228.714,273.239z"/>
<g>
</g>
<g>
</g>
<g>
</g>
<g>
</g>
<g>
</g>
<g>
</g>
<g>
</g>
<g>
</g>
<g>
</g>
<g>
</g>
<g>
</g>
<g>
</g>
<g>
</g>
<g>
</g>
<g>
</g>
</svg>
