<?xml version="1.0" encoding="utf-8"?>
<!-- Generator: Adobe Illustrator 19.0.0, SVG Export Plug-In . SVG Version: 6.00 Build 0)  -->
<svg version="1.1" id="Layer_1" xmlns="http://www.w3.org/2000/svg" xmlns:xlink="http://www.w3.org/1999/xlink" x="0px" y="0px"
	 viewBox="0 0 96 96" style="enable-background:new 0 0 96 96;" xml:space="preserve">
<style type="text/css">
	.st0{fill:#333333;}
</style>
<g id="XMLID_2_">
	<path id="XMLID_8_" class="st0" d="M62.8,67c0-0.6-0.2-1.1-0.6-1.5c-0.4-0.4-0.9-0.6-1.5-0.6s-1.1,0.2-1.5,0.6
		c-0.4,0.4-0.6,0.9-0.6,1.5c0,0.6,0.2,1.1,0.6,1.5c0.4,0.4,0.9,0.6,1.5,0.6s1.1-0.2,1.5-0.6S62.8,67.6,62.8,67z M71.3,67
		c0-0.6-0.2-1.1-0.6-1.5c-0.4-0.4-0.9-0.6-1.5-0.6c-0.6,0-1.1,0.2-1.5,0.6C67.2,66,67,66.5,67,67c0,0.6,0.2,1.1,0.6,1.5
		s0.9,0.6,1.5,0.6c0.6,0,1.1-0.2,1.5-0.6C71.1,68.1,71.3,67.6,71.3,67z M75.5,59.6v10.6c0,0.9-0.3,1.6-0.9,2.2
		c-0.6,0.6-1.4,0.9-2.2,0.9H23.7c-0.9,0-1.6-0.3-2.2-0.9c-0.6-0.6-0.9-1.4-0.9-2.2V59.6c0-0.9,0.3-1.6,0.9-2.2
		c0.6-0.6,1.4-0.9,2.2-0.9H39l4.5,4.5c1.3,1.2,2.8,1.9,4.5,1.9s3.2-0.6,4.5-1.9l4.5-4.5h15.3c0.9,0,1.6,0.3,2.2,0.9
		C75.2,58,75.5,58.8,75.5,59.6z M64.8,40.8c0.4,0.9,0.2,1.7-0.5,2.3L49.5,57.9c-0.4,0.4-0.9,0.6-1.5,0.6s-1.1-0.2-1.5-0.6L31.7,43.1
		c-0.7-0.6-0.8-1.4-0.5-2.3c0.4-0.9,1-1.3,2-1.3h8.5V24.7c0-0.6,0.2-1.1,0.6-1.5s0.9-0.6,1.5-0.6h8.5c0.6,0,1.1,0.2,1.5,0.6
		c0.4,0.4,0.6,0.9,0.6,1.5v14.8h8.5C63.7,39.5,64.4,40,64.8,40.8z"/>
</g>
</svg>
