<?xml version="1.0" encoding="utf-8"?>
<!-- Generator: Adobe Illustrator 23.0.3, SVG Export Plug-In . SVG Version: 6.00 Build 0)  -->
<svg version="1.1" id="Layer_1" xmlns="http://www.w3.org/2000/svg" xmlns:xlink="http://www.w3.org/1999/xlink" x="0px" y="0px"
	 viewBox="0 0 1000 1000" style="enable-background:new 0 0 1000 1000;" xml:space="preserve">
<g>
	<path d="M600.2,425.9C736.5,242.7,671.3,65.4,508,18.5C431.1-3.6,319.2,62,330.9,166.3c10.7,97.8,103.3,125.7,94.3,228.8
		C464.4,370.2,531,350.8,600.2,425.9L600.2,425.9z"/>
	<path d="M418.4,467.7c-17.8,45.2,4.2,96.1,49.3,114c45.1,17.8,96.1-4.3,113.9-49.5c17.9-45.1-4.2-96.2-49.2-114
		C487.2,400.4,436.2,422.5,418.4,467.7L418.4,467.7z"/>
</g>
<path d="M384.8,440.8C158.6,409.3,34.5,551.6,71.8,717.4c17.5,78.1,128.9,144.7,214.7,84.4c80.6-56.4,60.6-151,155.4-192.7
	C401.1,586.6,352.2,537.6,384.8,440.8L384.8,440.8z"/>
<path d="M513.5,621.8C612.6,827.5,799.9,851.9,917.1,729c55.3-57.9,49-187.5-48.8-225.5C776.7,467.6,709,536.8,621.8,481
	C625.8,527.4,612.1,595.3,513.5,621.8L513.5,621.8z"/>
</svg>
