<?xml version="1.0" encoding="utf-8"?> <svg version="1.1" xmlns="http://www.w3.org/2000/svg" xmlns:xlink="http://www.w3.org/1999/xlink" x="0px" y="0px" viewBox="0 0 1000 1000" xml:space="preserve"> <g><path d="M612.2,486.3c145.1-195,75.7-383.7-98.1-433.6c-81.9-23.6-201,46.3-188.6,157.3c11.4,104.1,110,133.8,100.4,243.6C467.7,427,538.5,406.4,612.2,486.3L612.2,486.3z"/><path d="M344.9,538.6C103.5,510.5-25.2,665.1,18.4,840.4C39,923.2,158.9,991.5,249,925.2c84.3-61.9,60.9-162.1,160.7-208.6C365.8,693.3,312.6,642.3,344.9,538.6L344.9,538.6z"/><path d="M523.8,744.1c96.2,223.2,294.5,257.3,424.7,131.7c61.3-59.1,60.5-197.2-41.9-241.8c-95.9-42.3-170.9,28.3-261.1-34.9C647.4,648.5,629.8,720.1,523.8,744.1L523.8,744.1z"/><path d="M406.7,555.3c-19,48.1,4.5,102.3,52.5,121.4c48,18.9,102.3-4.6,121.2-52.7c19.1-48-4.5-102.4-52.4-121.3C479.9,483.7,425.7,507.2,406.7,555.3L406.7,555.3z"/></g> </svg>